<svg version="1.1" id="Layer_1" xmlns="http://www.w3.org/2000/svg" xmlns:xlink="http://www.w3.org/1999/xlink" x="0px" y="0px" width="1280px" height="153.039px" viewBox="0 0 1280 153.039" enable-background="new 0 0 1280 153.039" xml:space="preserve">
  <path id="logo-text-end" fill="#3B3B3A" d="M763.477,40.344h-15.28c-10.393,0-18.95,1.834-25.675,4.891V23.84h37.898
    c7.947,0,13.448,1.223,13.448,8.558C773.257,37.898,768.367,40.344,763.477,40.344 M800.152,77.631h-6.725
    c-4.89,0-11.003-1.223-15.281-7.946l-5.502-9.169c14.061-4.89,21.396-14.06,21.396-28.118c0-17.115-12.837-29.341-30.563-29.341
    H702.35l-0.61,0.611v94.746l0.61,0.611h18.949l0.611-0.611V65.405c7.335-3.668,11.614-5.502,25.674-5.502h0.611l14.67,23.229
    c8.558,14.059,17.727,15.281,28.117,15.281h7.947l0.611-0.611V77.631H800.152z M1245.157,45.234h-8.559
    c-10.392,0-20.782,0.611-29.341,4.891V23.841h37.288c9.78,0,14.06,3.056,14.06,10.392
    C1259.217,43.4,1254.327,45.234,1245.157,45.234 M1248.214,3.057h-60.516l-0.611,0.611v94.746l0.611,0.611h18.948l0.611-0.611
    V70.296c7.946-4.278,12.227-5.501,29.341-5.501h8.56c21.395,0,34.842-12.227,34.842-31.176
    C1280,15.282,1267.163,3.057,1248.214,3.057 M990.258,81.91c-17.727,0-35.453-9.169-35.453-30.562
    c0-20.783,17.728-30.563,35.453-30.563c17.727,0,35.454,9.169,35.454,29.952C1025.101,66.018,1012.875,81.91,990.258,81.91
     M989.646,0c-14.67,0-28.729,4.891-39.121,13.447c-11.614,9.169-17.728,22.617-17.728,37.898c0,33.619,29.341,51.346,56.849,51.346
    s56.849-18.338,56.849-51.957C1046.495,15.894,1017.154,0,989.646,0"></path>
  <path id="logo-text-start" fill="#68BFBD" d="M529.36,44.624h-8.559c-10.392,0-20.782,0.61-29.342,4.89V23.229h37.288
    c9.78,0,14.059,3.057,14.059,10.392C543.419,43.4,538.529,44.624,529.36,44.624 M532.416,3.057H471.9l-0.611,0.611v94.746
    l0.611,0.611h18.948l0.611-0.611V70.296c7.947-4.278,12.226-5.501,29.342-5.501h8.559c21.395,0,34.842-12.227,34.842-31.176
    C564.202,15.282,551.366,3.057,532.416,3.057 M89.857,3.057H0.611L0,3.668v18.948l0.611,0.611h33.62v75.187l0.611,0.611h20.172
    V23.228h34.843l0.611-0.611V3.668L89.857,3.057z M273.849,83.133c-18.338,0-36.065-11.614-36.065-31.175
    c0-19.562,17.727-31.176,36.065-31.176c18.338,0,36.065,10.393,36.065,30.563C310.525,71.519,292.188,83.133,273.849,83.133
     M314.193,14.671C303.19,4.891,289.742,0,273.849,0s-29.341,4.891-40.344,14.671c-11.003,9.779-17.116,22.006-17.116,36.676
    c0,12.226,4.89,23.84,14.059,33.62c4.89,5.5,9.169,9.779,12.837,12.836c6.113,5.502,11.614,9.781,15.282,13.447
    c4.279,3.057,9.169,7.336,14.059,11.004l0.611,0.609l0.611-0.609c1.223-1.225,8.558-6.725,14.059-11.004
    c7.947-6.111,13.448-11.004,15.282-13.447c3.667-3.057,7.947-7.336,12.837-12.836c9.78-11.003,14.67-22.006,14.67-33.62
    C331.309,36.677,325.807,24.451,314.193,14.671"></path>
  <path id="shadow-big" display="none" opacity="0.3" enable-background="new    " d="M273.727,133.867
    c-23.105,0-44.5,3.423-44.5,8.559c0,5.991,21.395,9.414,44.5,9.414s45.356-3.423,45.356-9.414
    C319.084,136.435,296.834,133.867,273.727,133.867"></path>
  <path id="shadow" opacity="0.3" enable-background="new    " d="M273.849,133.867c-16.504,0-31.786,2.445-31.786,6.113
    c0,4.279,15.282,6.725,31.786,6.725s32.397-2.445,32.397-6.725C306.247,135.701,290.354,133.867,273.849,133.867"></path>
</svg>
